<mxfile host="Electron" modified="2023-11-06T17:09:10.617Z" agent="Mozilla/5.0 (Windows NT 10.0; Win64; x64) AppleWebKit/537.36 (KHTML, like Gecko) draw.io/22.0.2 Chrome/114.0.5735.289 Electron/25.8.4 Safari/537.36" etag="aGT_tlv8sqFd_rXWThd-" version="22.0.2" type="device">
  <diagram name="Page-1" id="By0ZKSDPYL3Z9GK5EuzI">
    <mxGraphModel dx="792" dy="1187" grid="1" gridSize="10" guides="1" tooltips="1" connect="1" arrows="1" fold="1" page="1" pageScale="1" pageWidth="827" pageHeight="1169" math="0" shadow="0">
      <root>
        <mxCell id="0" />
        <mxCell id="1" parent="0" />
        <mxCell id="-aQRNXzipKhnp_q8yYAn-3" style="edgeStyle=orthogonalEdgeStyle;rounded=0;orthogonalLoop=1;jettySize=auto;html=1;exitX=1;exitY=0.5;exitDx=0;exitDy=0;exitPerimeter=0;endArrow=none;endFill=0;strokeWidth=3;fillColor=#dae8fc;strokeColor=#6c8ebf;" edge="1" parent="1" source="-aQRNXzipKhnp_q8yYAn-1" target="-aQRNXzipKhnp_q8yYAn-2">
          <mxGeometry relative="1" as="geometry" />
        </mxCell>
        <mxCell id="-aQRNXzipKhnp_q8yYAn-1" value="" style="verticalAlign=top;verticalLabelPosition=bottom;labelPosition=center;align=center;html=1;outlineConnect=0;fillColor=#ffe6cc;strokeColor=#d79b00;gradientDirection=north;strokeWidth=2;shape=mxgraph.networks.pc;" vertex="1" parent="1">
          <mxGeometry x="50" y="130" width="128.57" height="90" as="geometry" />
        </mxCell>
        <mxCell id="-aQRNXzipKhnp_q8yYAn-2" value="" style="verticalAlign=top;verticalLabelPosition=bottom;labelPosition=center;align=center;html=1;outlineConnect=0;fillColor=#e1d5e7;strokeColor=#9673a6;gradientDirection=north;strokeWidth=2;shape=mxgraph.networks.server;" vertex="1" parent="1">
          <mxGeometry x="500" y="125" width="90" height="100" as="geometry" />
        </mxCell>
        <mxCell id="-aQRNXzipKhnp_q8yYAn-4" value="" style="endArrow=classic;html=1;rounded=0;strokeWidth=2;fillColor=#f5f5f5;strokeColor=#666666;" edge="1" parent="1">
          <mxGeometry width="50" height="50" relative="1" as="geometry">
            <mxPoint x="240" y="140" as="sourcePoint" />
            <mxPoint x="400" y="140" as="targetPoint" />
          </mxGeometry>
        </mxCell>
        <mxCell id="-aQRNXzipKhnp_q8yYAn-5" value="" style="endArrow=none;html=1;rounded=0;strokeWidth=2;endFill=0;startArrow=classic;startFill=1;fillColor=#f5f5f5;strokeColor=#666666;" edge="1" parent="1">
          <mxGeometry width="50" height="50" relative="1" as="geometry">
            <mxPoint x="240" y="210" as="sourcePoint" />
            <mxPoint x="400" y="210" as="targetPoint" />
          </mxGeometry>
        </mxCell>
        <mxCell id="-aQRNXzipKhnp_q8yYAn-6" value="&lt;font color=&quot;#666666&quot; style=&quot;font-size: 15px;&quot;&gt;&lt;b&gt;ECHO REQUEST&lt;/b&gt;&lt;/font&gt;" style="text;html=1;align=center;verticalAlign=middle;resizable=0;points=[];autosize=1;strokeColor=none;fillColor=none;" vertex="1" parent="1">
          <mxGeometry x="240" y="108" width="140" height="30" as="geometry" />
        </mxCell>
        <mxCell id="-aQRNXzipKhnp_q8yYAn-7" value="&lt;font color=&quot;#666666&quot; style=&quot;font-size: 15px;&quot;&gt;&lt;b&gt;ECHO REPLY&lt;/b&gt;&lt;/font&gt;" style="text;html=1;align=center;verticalAlign=middle;resizable=0;points=[];autosize=1;strokeColor=none;fillColor=none;" vertex="1" parent="1">
          <mxGeometry x="260" y="210" width="120" height="30" as="geometry" />
        </mxCell>
      </root>
    </mxGraphModel>
  </diagram>
</mxfile>
